<svg width="512" height="512" viewBox="0 0 512 512" fill="none" xmlns="http://www.w3.org/2000/svg">
<circle cx="256" cy="256" r="221" fill="#3D3D3D"/>
<rect x="149" y="35" width="220" height="441" rx="24" fill="white"/>
<rect x="165" y="250" width="188" height="12" rx="6" fill="#D9D9D9"/>
<circle cx="258.5" cy="149.5" r="33.5" fill="black"/>
<path d="M210.082 210.274L255.485 255.678L210.082 301.082C185.006 326.157 144.35 326.157 119.274 301.082C94.1981 276.006 94.1981 235.35 119.274 210.274C144.35 185.198 185.006 185.198 210.082 210.274Z" stroke="#FF5C5C" stroke-width="38"/>
<path d="M301.274 210.274L255.87 255.678L301.274 301.082C326.35 326.157 367.006 326.157 392.082 301.082C417.157 276.006 417.157 235.35 392.082 210.274C367.006 185.198 326.35 185.198 301.274 210.274Z" stroke="#FF5C5C" stroke-width="38"/>
</svg>
